# xmcd
#
# Track frame offsets: 
#        150
#        16485
#        38410
#        66440
#        84165
#        115541
#        133869
#        157657
#        167332
#        189415
#        208475
#        229958
#        266111
#        282277
#        298924
#        315139
#        336706
#
# Disc length: 4774 seconds
#
# Revision: 0
# Processed by: cddbd v1.5.2PL0 Copyright (c) Steve Scherf et al.
# Submitted via: ExactAudioCopy v0.95a5
#
DISCID=f212a411
DTITLE=Various Artist - On the Road Again  5-rd Mile
DYEAR=2005
DGENRE=Blues
TTITLE0=COLIN JAMES - Standing on the Edge
TTITLE1=MICROWAVE DAVE - Got My Mind Made Up
TTITLE2=TOTH BAGI BAND - Angel Left Me Today
TTITLE3=BERNARD ALLISON - I Think I Love You to Much
TTITLE4=AYNSLEY LISTER - Nine Need Her So Bad
TTITLE5=SCOTT ELLISON - Darker Shade of Blue
TTITLE6=KEB'MO' - Riley B.King
TTITLE7=The SHADOWS - All Mamas Children
TTITLE8=LUCKY PETERSON - Is It Because I'm Black
TTITLE9=BACKBONE SLIP - Breaking Up Somebody's Home
TTITLE10=ROBERT CRAY - Never Mattered Much
TTITLE11=HEAVY BLUES CHEVY -  Jamed Away
TTITLE12=J.J.MILTEAU -  Home Is Where the Hatred
TTITLE13=RADIO KINGS - Tell Me When
TTITLE14=BLUES COMPANY - Invitation to the Blues
TTITLE15=BILLY C.FARLOW - Don't Cry to Me
TTITLE16=TOSCHO - Gimme Your Number
EXTD=
EXTT0=
EXTT1=
EXTT2=
EXTT3=
EXTT4=
EXTT5=
EXTT6=
EXTT7=
EXTT8=
EXTT9=
EXTT10=
EXTT11=
EXTT12=
EXTT13=
EXTT14=
EXTT15=
EXTT16=
PLAYORDER=
